<?xml version="1.0" encoding="UTF-8" standalone="no"?>
<svg
   xmlns:dc="http://purl.org/dc/elements/1.1/"
   xmlns:cc="http://creativecommons.org/ns#"
   xmlns:rdf="http://www.w3.org/1999/02/22-rdf-syntax-ns#"
   xmlns:svg="http://www.w3.org/2000/svg"
   xmlns="http://www.w3.org/2000/svg"
   xmlns:sodipodi="http://sodipodi.sourceforge.net/DTD/sodipodi-0.dtd"
   xmlns:inkscape="http://www.inkscape.org/namespaces/inkscape"
   id="Layer_1"
   data-name="Layer 1"
   viewBox="0 0 512.00003 512"
   version="1.1"
   sodipodi:docname="devs-logo-dark-grey.svg"
   width="512"
   height="512"
   inkscape:version="0.92.3 (2405546, 2018-03-11)">
  <metadata
     id="metadata31">
    <rdf:RDF>
      <cc:Work
         rdf:about="">
        <dc:format>image/svg+xml</dc:format>
        <dc:type
           rdf:resource="http://purl.org/dc/dcmitype/StillImage" />
        <dc:title>reg-logo-vector</dc:title>
      </cc:Work>
    </rdf:RDF>
  </metadata>
  <sodipodi:namedview
     pagecolor="#efefef"
     bordercolor="#666666"
     borderopacity="1"
     objecttolerance="10"
     gridtolerance="10"
     guidetolerance="10"
     inkscape:pageopacity="0"
     inkscape:pageshadow="2"
     inkscape:window-width="1920"
     inkscape:window-height="1018"
     id="namedview29"
     showgrid="false"
     inkscape:zoom="1.5247141"
     inkscape:cx="220.00435"
     inkscape:cy="246.76719"
     inkscape:window-x="1920"
     inkscape:window-y="0"
     inkscape:window-maximized="1"
     inkscape:current-layer="Layer_1" />
  <defs
     id="defs4">
    <style
       id="style2">.cls-1{fill:#efefef;}</style>
  </defs>
  <title
     id="title6">reg-logo-vector</title>
  <polygon
     transform="matrix(1.0782064,0,0,1.0820317,-686.74129,138.39236)"
     class="cls-1"
     points="949.3,73.64 922.75,139.91 896.25,73.64 876.15,73.64 913.42,166.87 932.12,166.87 969.39,73.64 "
     id="polygon20"
     style="fill:#efefef;fill-opacity:1" />
  <path
     inkscape:connector-curvature="0"
     class="cls-1"
     d="m 128.50764,176 v 52.52793 a 52.262745,52.448161 0 1 0 0,83.82125 v 10.57744 h 20.88124 V 176 Z M 97.126128,301.81166 a 31.341738,31.452931 0 1 1 31.381512,-31.45293 31.381511,31.492845 0 0 1 -31.381512,31.45293 z"
     id="path18-7"
     style="fill:#efefef;fill-opacity:1;stroke-width:3.98442721" />
  <path
     d="m 210.38379,237.3048 c -3.37185,0 -6.59109,0.50686 -9.65772,1.52054 -3.06665,1.01733 -5.88257,2.45399 -8.44416,4.31362 -2.56159,1.86328 -4.78892,4.07662 -6.67468,6.64729 -1.88577,2.57433 -3.37184,5.37835 -4.44736,8.42307 h 58.55317 c -1.08639,-3.04472 -2.58336,-5.84874 -4.50548,-8.42307 -1.91484,-2.57067 -4.1603,-4.78401 -6.72189,-6.64729 -2.56159,-1.85963 -5.3775,-3.29629 -8.44415,-4.31362 -3.0739,-1.01368 -6.28589,-1.52054 -9.65773,-1.52054 m 0,-20.90451 c 7.20878,0 13.97426,1.35281 20.27468,4.0584 6.30041,2.70559 11.81599,6.42851 16.53585,11.16146 4.71986,4.7366 8.42238,10.26812 11.12567,16.59453 2.69238,6.32642 4.04764,13.10862 4.04764,20.34662 v 10.45407 h -81.20776 c 1.07552,3.04471 2.56159,5.83781 4.44736,8.37203 1.88576,2.53785 4.11309,4.71836 6.67468,6.54518 2.56159,1.82682 5.37751,3.24891 8.44416,4.26258 3.06663,1.01733 6.28587,1.52417 9.65772,1.52417 4.25113,0 8.27337,-0.7949 12.08488,-2.38835 3.80424,-1.58616 7.09613,-3.80315 9.85756,-6.64366 l 14.76999,14.81512 c -4.71985,4.73661 -10.19909,8.44129 -16.43775,11.11041 -6.23864,2.67643 -12.99324,4.01098 -20.27468,4.01098 -7.21607,0 -13.9561,-1.35278 -20.22383,-4.05837 -6.27135,-2.70559 -11.76877,-6.42852 -16.485,-11.16511 -4.71985,-4.73296 -8.42961,-10.2499 -11.12562,-16.53984 -2.69603,-6.29358 -4.04405,-13.05756 -4.04405,-20.29921 0,-7.238 1.34802,-14.0202 4.04405,-20.34662 2.69601,-6.32641 6.40577,-11.85793 11.12562,-16.59453 4.71623,-4.73295 10.21365,-8.45587 16.485,-11.16146 6.26773,-2.70559 13.00776,-4.0584 20.22383,-4.0584"
     style="fill:#efefef;fill-opacity:1;fill-rule:nonzero;stroke:none;stroke-width:3.63989592"
     id="path34"
     inkscape:connector-curvature="0" />
  <path
     d="m 432.29878,258.57932 c 4.14245,0 8.04084,0.77685 11.69514,2.33753 11.18109,5.22818 18.30409,15.86961 18.39004,27.65844 0,4.15367 -0.79153,8.05187 -2.3746,11.68765 -1.58656,3.63576 -3.73449,6.81663 -6.44733,9.54258 -2.71281,2.72944 -5.89989,4.87101 -9.5507,6.4282 -3.6508,1.55719 -7.54569,2.33753 -11.68469,2.33753 h -69.80475 v -20.06146 h 69.87452 c 1.35989,0 2.65003,-0.25896 3.88093,-0.78034 1.22739,-0.5179 2.31531,-1.23176 3.25331,-2.14157 0.93448,-0.90983 1.66326,-1.9631 2.17932,-3.16688 0.51956,-1.20025 0.77759,-2.48448 0.77759,-3.84571 0,-1.36472 -0.25811,-2.66296 -0.77759,-3.89472 -0.51606,-1.23175 -1.24484,-2.28853 -2.17932,-3.16685 -0.938,-0.87485 -2.02592,-1.57121 -3.25331,-2.09258 -1.2309,-0.52139 -2.52104,-0.78036 -3.88093,-0.78036 h -39.78933 c -4.14245,0 -8.04082,-0.79432 -11.69514,-2.38651 -3.65428,-1.58868 -6.84134,-3.74775 -9.55763,-6.47719 -2.71982,-2.72597 -4.87126,-5.92433 -6.4543,-9.59158 -1.58657,-3.66725 -2.37812,-7.57947 -2.37812,-11.73663 0,-4.15367 0.79155,-8.04838 2.37812,-11.68766 1.58304,-3.63576 3.73448,-6.81661 6.4543,-9.54257 2.71629,-2.72945 5.90335,-4.87103 9.55763,-6.42822 3.65432,-1.56069 7.55269,-2.33754 11.69514,-2.33754 h 49.88048 v 20.06149 h -49.96065 c -1.36342,0 -2.65705,0.25894 -3.88793,0.78033 -1.23089,0.52139 -2.31532,1.21775 -3.25679,2.09258 -0.94145,0.87833 -1.66676,1.93512 -2.1898,3.16687 -0.51607,1.23175 -0.7741,2.53 -0.7741,3.89472 0,1.36473 0.25812,2.66295 0.7741,3.8947 0.51957,1.23526 1.24835,2.30606 2.18282,3.21586 0.938,0.90983 2.0224,1.64117 3.2533,2.19056 1.2274,0.55289 2.52106,0.82933 3.88095,0.82933 z"
     style="fill:#efefef;fill-opacity:1;fill-rule:nonzero;stroke:none;stroke-width:3.49310446"
     id="path44"
     inkscape:connector-curvature="0"
     sodipodi:nodetypes="sccccssccscccscccsscccscccsccscccscccss" />
  <path
     class="cls-1"
     d="m 466.78382,201.02382 -8.47838,12.31821 a 66.830496,67.067596 0 0 1 0,110.37182 L 466.79964,336 a 81.794201,82.084389 0 0 0 0,-134.92856"
     id="path24"
     style="fill:#efefef;fill-opacity:1;stroke-width:1.58459044"
     inkscape:connector-curvature="0" />
  <path
     class="cls-1"
     d="m 45.172593,336 8.494196,-12.30202 a 66.814679,67.051723 0 0 1 0,-110.35595 l -8.478378,-12.31821 a 81.810019,82.100262 0 0 0 0,134.92856"
     id="path26"
     style="fill:#efefef;fill-opacity:1;stroke-width:1.58459044"
     inkscape:connector-curvature="0" />
</svg>
